<svg id="Layer_1" data-name="Layer 1" xmlns="http://www.w3.org/2000/svg" viewBox="0 0 12 12"><title>Artboard 1</title><path d="M0,9.7V2.3H3.6l1.1.2A1.7,1.7,0,0,1,5.8,3.7a1.9,1.9,0,0,1-.2,1.4,1.4,1.4,0,0,1-.5.5H5l.3.2a1.5,1.5,0,0,1,.7,1,2.2,2.2,0,0,1-.6,2.2,2,2,0,0,1-1.2.6H0ZM1.7,6.4v2H4.1a.8.8,0,0,0,.5-.8,1,1,0,0,0-.1-.7.9.9,0,0,0-.7-.4H1.7Zm0-1.2h2L4.2,5a.8.8,0,0,0,.2-.6A.6.6,0,0,0,4,3.7H1.7Z"/><path d="M12,7.2H8.1A1.2,1.2,0,0,0,9.3,8.5a1.2,1.2,0,0,0,.9-.2l.3-.3h1.5a1.1,1.1,0,0,1-.2.5,2.3,2.3,0,0,1-1.6,1.2,3.1,3.1,0,0,1-2.4-.4,2.1,2.1,0,0,1-1-1.4,4.1,4.1,0,0,1,0-2.1A2.3,2.3,0,0,1,8.5,4.1a3,3,0,0,1,2.3.3,2.2,2.2,0,0,1,.9,1A3.1,3.1,0,0,1,12,6.7C12,6.8,12,7,12,7.2Zm-1.5-.9A1.1,1.1,0,0,0,9.3,5.2,1.1,1.1,0,0,0,8.2,6.3Z"/><path d="M7.8,3.3V2.6h3v.7Z"/></svg>