<svg id="Layer_1" data-name="Layer 1" xmlns="http://www.w3.org/2000/svg" viewBox="0 0 12 12"><title>Artboard 1</title><path d="M12,6A6,6,0,1,1,6,0,6,6,0,0,1,12,6ZM3.2,9.7a4.6,4.6,0,0,0,4.4.6A21.6,21.6,0,0,0,6.7,7,6.7,6.7,0,0,0,3.2,9.7ZM2.4,9A7.7,7.7,0,0,1,6.4,6l-.2-.5H6l-1.7.4a14.6,14.6,0,0,1-2.9.2H1.3A4.7,4.7,0,0,0,2.4,9ZM5.6,4.4A14.7,14.7,0,0,0,3.9,1.8,4.7,4.7,0,0,0,2,3.6a4.4,4.4,0,0,0-.5,1.3A13.8,13.8,0,0,0,5.6,4.4Zm1-.4A5.9,5.9,0,0,0,8.9,2.3,4.7,4.7,0,0,0,5,1.4,17.5,17.5,0,0,1,6.6,4Zm4,2.9a7.2,7.2,0,0,0-2.8-.1,24.6,24.6,0,0,1,.9,3.1A4.6,4.6,0,0,0,10.6,6.9ZM9.7,3.1A7.3,7.3,0,0,1,7.1,5l.3.7h.5a8.3,8.3,0,0,1,2.4.1h.4A4.7,4.7,0,0,0,9.7,3.1Z"/></svg>