<svg id="Layer_1" data-name="Layer 1" xmlns="http://www.w3.org/2000/svg" viewBox="0 0 12 12"><title>Artboard 1</title><path d="M6,12H3.5a3.9,3.9,0,0,1-2-.5A3,3,0,0,1,.1,9.3,11,11,0,0,1,0,7.7C0,6.5,0,5.3,0,4.1A5.8,5.8,0,0,1,.2,2.2,3,3,0,0,1,2.6.1H7.9A5.8,5.8,0,0,1,9.7.2a3,3,0,0,1,2.1,2.4A9.7,9.7,0,0,1,12,4.3c0,1.2,0,2.4,0,3.6a5.8,5.8,0,0,1-.2,1.9,3,3,0,0,1-2.4,2.1H6Zm5-6.1h0c0-.5,0-.9,0-1.4s0-.9-.1-1.4A2,2,0,0,0,9.1,1.2H2.9A2,2,0,0,0,1.2,2.7a3.5,3.5,0,0,0-.1.9c0,1.1,0,2.2,0,3.3s0,1.4.1,2.1a2,2,0,0,0,1.7,1.9h6a2.2,2.2,0,0,0,1.2-.5,2.2,2.2,0,0,0,.8-1.7C10.9,7.7,10.9,6.8,10.9,5.9Z"/><path d="M6,9.1A3.1,3.1,0,1,1,9.1,6,3.1,3.1,0,0,1,6,9.1ZM6,8A2,2,0,1,0,4,6,2,2,0,0,0,6,8Z"/><path d="M9.2,2.1a.7.7,0,0,1,.7.7.7.7,0,0,1-.7.7.7.7,0,0,1-.7-.7A.7.7,0,0,1,9.2,2.1Z"/></svg>