<svg id="Layer_1" data-name="Layer 1" xmlns="http://www.w3.org/2000/svg" viewBox="0 0 12 12"><title>Artboard 1</title><path d="M11.2,12H.6a.8.8,0,0,1-.5-.8Q0,6,0,.9A.8.8,0,0,1,.6.1H11.3A.8.8,0,0,1,12,1Q12,6,12,11.1a.8.8,0,0,1-.6.8ZM6.4,5.2c0-.2,0-.3,0-.5s-.1-.2-.3-.2H4.9c-.2,0-.2.1-.2.2q0,2.7,0,5.3c0,.2.1.3.3.3H6.2c.2,0,.3-.1.3-.3s0-1.9,0-2.8a2.3,2.3,0,0,1,.2-.8.9.9,0,0,1,1-.5.7.7,0,0,1,.7.7,3.5,3.5,0,0,1,.1.7q0,1.4,0,2.7c0,.2.1.3.3.3H10c.2,0,.3-.1.3-.3s0-2.1,0-3.2a5.4,5.4,0,0,0-.1-1A1.7,1.7,0,0,0,8.9,4.4,2.2,2.2,0,0,0,6.4,5.2ZM1.7,7.4c0,.9,0,1.8,0,2.7s0,.2.2.2H3.4c.2,0,.2-.1.2-.3q0-2.7,0-5.3c0-.2-.1-.3-.3-.2H2c-.2,0-.3.1-.3.3S1.7,6.5,1.7,7.4Zm.9-3.6a1.1,1.1,0,1,0,0-2.1,1,1,0,0,0-1,1.1A1,1,0,0,0,2.7,3.7Z"/></svg>