<svg id="Layer_1" data-name="Layer 1" xmlns="http://www.w3.org/2000/svg" viewBox="0 0 12 12"><title>Artboard 1</title><path d="M.1,4.1l.8-.7L2.6,2.2l.9-.4a1.3,1.3,0,0,1,1.5.7,3.7,3.7,0,0,1,.4,1.2c.2.9.3,1.9.5,2.8a4.1,4.1,0,0,0,.4,1.1h0c.2.3.4.4.7.1l.7-.9a6,6,0,0,0,.7-1.3,1.5,1.5,0,0,0,.1-.7A.7.7,0,0,0,7.9,4h-1l.2-.6A3.5,3.5,0,0,1,8.2,2.1a3,3,0,0,1,1.6-.6h1a1.5,1.5,0,0,1,1.1,1.2A3.5,3.5,0,0,1,11.7,5a9.5,9.5,0,0,1-1.1,1.9A19.6,19.6,0,0,1,8.1,9.8,6,6,0,0,1,6.4,11l-.8.2a1.3,1.3,0,0,1-1.1-.5,4.1,4.1,0,0,1-.8-1.6l-1-3.4a3.5,3.5,0,0,0-.5-1.1l-.2-.2a.4.4,0,0,0-.5-.1l-.8.5L.1,4.2Z"/></svg>