<svg id="Layer_1" data-name="Layer 1" xmlns="http://www.w3.org/2000/svg" width="510.2" height="72.8" viewBox="0 0 510.2 72.8"><title>Artboard 1</title><path d="M271,39.8a18.4,18.4,0,0,1-31.9,0,18.4,18.4,0,0,1,31.9,0Z" fill="none" stroke="#7c8080" stroke-linecap="round" stroke-linejoin="round" stroke-width="0.96"/><path d="M271,39.8a18.4,18.4,0,0,1-31.9,0,18.4,18.4,0,0,1,31.9,0Z" fill="none" stroke="#7c8080" stroke-linecap="round" stroke-linejoin="round" stroke-width="0.96"/><circle cx="255.1" cy="39.8" r="5.7" fill="none" stroke="#7c8080" stroke-linecap="round" stroke-linejoin="round" stroke-width="0.96"/><line x1="239.1" y1="39.8" x2="235.4" y2="36" fill="none" stroke="#7c8080" stroke-linecap="round" stroke-linejoin="round" stroke-width="0.96"/><line x1="271" y1="39.8" x2="274.8" y2="36" fill="none" stroke="#7c8080" stroke-linecap="round" stroke-linejoin="round" stroke-width="0.96"/><line x1="255.1" y1="30.6" x2="255.1" y2="23.8" fill="none" stroke="#7c8080" stroke-linecap="round" stroke-linejoin="round" stroke-width="0.96"/><line x1="245.7" y1="33.2" x2="241.8" y2="27.2" fill="none" stroke="#7c8080" stroke-linecap="round" stroke-linejoin="round" stroke-width="0.96"/><line x1="264.6" y1="33.2" x2="268.5" y2="27.2" fill="none" stroke="#7c8080" stroke-linecap="round" stroke-linejoin="round" stroke-width="0.96"/><line x1="284.3" y1="39.8" x2="493.6" y2="39.8" fill="none" stroke="#7c8080" stroke-linecap="round" stroke-linejoin="round" stroke-width="0.96"/><line x1="16.6" y1="39.8" x2="225.9" y2="39.8" fill="none" stroke="#7c8080" stroke-linecap="round" stroke-linejoin="round" stroke-width="0.96"/></svg>